<svg width="24" height="24" viewBox="0 0 24 24" fill="none" xmlns="http://www.w3.org/2000/svg">
<path d="M15 15.9951L14.8529 16.7306C15.1846 16.7969 15.5196 16.633 15.6708 16.3305L15 15.9951ZM8 8.99512L7.66459 8.3243C7.36208 8.47555 7.19824 8.81056 7.26456 9.1422L8 8.99512ZM8.35402 8.81811L8.68943 9.48893L8.68943 9.48893L8.35402 8.81811ZM9.31654 6.28647L10.0129 6.00793L9.31654 6.28647ZM8.50289 4.25234L7.80653 4.53088L8.50289 4.25234ZM19.7428 15.4922L19.4642 16.1886L19.7428 15.4922ZM17.7086 14.6786L17.9872 13.9822H17.9872L17.7086 14.6786ZM15.177 15.6411L15.8478 15.9765V15.9765L15.177 15.6411ZM16.25 10.9951C16.25 11.4093 16.5858 11.7451 17 11.7451C17.4142 11.7451 17.75 11.4093 17.75 10.9951H16.25ZM16.6955 9.46438L17.3884 9.17737L16.6955 9.46438ZM14.5307 7.2996L14.8177 6.60669L14.5307 7.2996ZM13 6.24512C12.5858 6.24512 12.25 6.5809 12.25 6.99512C12.25 7.40933 12.5858 7.74512 13 7.74512V6.24512ZM20.25 10.9951C20.25 11.4093 20.5858 11.7451 21 11.7451C21.4142 11.7451 21.75 11.4093 21.75 10.9951H20.25ZM20.391 7.93365L21.0839 7.64664L20.391 7.93365ZM16.0615 3.60408L16.3485 2.91117V2.91117L16.0615 3.60408ZM13 2.24512C12.5858 2.24512 12.25 2.5809 12.25 2.99512C12.25 3.40933 12.5858 3.74512 13 3.74512V2.24512ZM20.25 17.3492V18.9951H21.75V17.3492H20.25ZM5 3.74512H6.64593V2.24512H5V3.74512ZM15 15.9951C15.1471 15.2597 15.1473 15.2597 15.1475 15.2598C15.1476 15.2598 15.1477 15.2598 15.1479 15.2598C15.1481 15.2599 15.1483 15.2599 15.1484 15.2599C15.1487 15.26 15.1488 15.26 15.1488 15.26C15.1488 15.26 15.1482 15.2599 15.147 15.2597C15.1447 15.2592 15.14 15.2582 15.1331 15.2566C15.1193 15.2536 15.0967 15.2485 15.0659 15.241C15.0044 15.226 14.9104 15.2017 14.7898 15.1662C14.5482 15.0952 14.2016 14.9798 13.7954 14.8058C12.9796 14.4561 11.9439 13.8784 11.0303 12.9648L9.96967 14.0254C11.0561 15.1119 12.2704 15.7841 13.2046 16.1845C13.6734 16.3854 14.0768 16.5201 14.3665 16.6053C14.5115 16.6479 14.6285 16.6783 14.7114 16.6985C14.7529 16.7086 14.7859 16.7161 14.8097 16.7214C14.8217 16.724 14.8313 16.7261 14.8385 16.7276C14.8421 16.7283 14.8451 16.729 14.8475 16.7295C14.8487 16.7297 14.8498 16.7299 14.8507 16.7301C14.8511 16.7302 14.8515 16.7303 14.8519 16.7304C14.8521 16.7304 14.8523 16.7304 14.8524 16.7305C14.8527 16.7305 14.8529 16.7306 15 15.9951ZM11.0303 12.9648C10.1167 12.0512 9.53901 11.0155 9.18936 10.1997C9.01527 9.79347 8.89996 9.44696 8.8289 9.20537C8.79342 9.08474 8.76912 8.99076 8.75414 8.92918C8.74666 8.89841 8.74151 8.87577 8.73847 8.86199C8.73695 8.8551 8.73595 8.85044 8.73546 8.84808C8.73521 8.8469 8.73509 8.8463 8.73508 8.84629C8.73508 8.84628 8.73511 8.84642 8.73517 8.84671C8.7352 8.84686 8.73524 8.84704 8.73528 8.84726C8.7353 8.84737 8.73534 8.84756 8.73535 8.84762C8.73539 8.84782 8.73544 8.84803 8 8.99512C7.26456 9.1422 7.26461 9.14244 7.26466 9.14268C7.26468 9.14277 7.26473 9.14302 7.26477 9.1432C7.26484 9.14358 7.26492 9.14399 7.26501 9.14444C7.2652 9.14533 7.26541 9.14638 7.26566 9.14759C7.26615 9.14999 7.26677 9.15301 7.26753 9.15662C7.26905 9.16385 7.27111 9.17346 7.27374 9.18537C7.279 9.20919 7.28655 9.24222 7.29664 9.28371C7.31682 9.36666 7.34721 9.48362 7.38985 9.62862C7.47504 9.91827 7.60973 10.3218 7.81064 10.7906C8.21099 11.7247 8.88325 12.939 9.96967 14.0254L11.0303 12.9648ZM8.33541 9.66594L8.68943 9.48893L8.01861 8.14729L7.66459 8.3243L8.33541 9.66594ZM10.0129 6.00793L9.19925 3.97379L7.80653 4.53088L8.62018 6.56502L10.0129 6.00793ZM20.0213 14.7959L17.9872 13.9822L17.4301 15.3749L19.4642 16.1886L20.0213 14.7959ZM14.5062 15.3057L14.3292 15.6597L15.6708 16.3305L15.8478 15.9765L14.5062 15.3057ZM17.9872 13.9822C16.6592 13.451 15.1458 14.0264 14.5062 15.3057L15.8478 15.9765C16.1386 15.395 16.8265 15.1335 17.4301 15.3749L17.9872 13.9822ZM8.68943 9.48893C9.96868 8.84931 10.5441 7.33588 10.0129 6.00793L8.62018 6.56502C8.86163 7.16863 8.60008 7.85655 8.01861 8.14729L8.68943 9.48893ZM6.64593 3.74512C7.15706 3.74512 7.6167 4.05631 7.80653 4.53088L9.19925 3.97379C8.78162 2.92973 7.77042 2.24512 6.64593 2.24512V3.74512ZM21.75 17.3492C21.75 16.2247 21.0654 15.2135 20.0213 14.7959L19.4642 16.1886C19.9388 16.3784 20.25 16.8381 20.25 17.3492H21.75ZM19 20.2451C10.5777 20.2451 3.75 13.4175 3.75 4.99512H2.25C2.25 14.2459 9.74923 21.7451 19 21.7451V20.2451ZM19 21.7451C20.5188 21.7451 21.75 20.5139 21.75 18.9951H20.25C20.25 19.6855 19.6904 20.2451 19 20.2451V21.7451ZM3.75 4.99512C3.75 4.30476 4.30964 3.74512 5 3.74512V2.24512C3.48122 2.24512 2.25 3.47633 2.25 4.99512H3.75ZM17.75 10.9951C17.75 10.3713 17.6271 9.75367 17.3884 9.17737L16.0026 9.7514C16.1659 10.1457 16.25 10.5683 16.25 10.9951H17.75ZM17.3884 9.17737C17.1497 8.60107 16.7998 8.07744 16.3588 7.63636L15.2981 8.69702C15.5999 8.99881 15.8393 9.35709 16.0026 9.7514L17.3884 9.17737ZM16.3588 7.63636C15.9177 7.19528 15.394 6.8454 14.8177 6.60669L14.2437 7.99251C14.638 8.15584 14.9963 8.39523 15.2981 8.69702L16.3588 7.63636ZM14.8177 6.60669C14.2415 6.36798 13.6238 6.24512 13 6.24512V7.74512C13.4268 7.74512 13.8494 7.82918 14.2437 7.99251L14.8177 6.60669ZM21.75 10.9951C21.75 9.84605 21.5237 8.70824 21.0839 7.64664L19.6981 8.22066C20.0625 9.10027 20.25 10.043 20.25 10.9951H21.75ZM21.0839 7.64664C20.6442 6.58504 19.9997 5.62045 19.1872 4.80793L18.1265 5.86859C18.7997 6.54182 19.3338 7.34105 19.6981 8.22066L21.0839 7.64664ZM19.1872 4.80793C18.3747 3.99542 17.4101 3.3509 16.3485 2.91117L15.7745 4.29699C16.6541 4.66134 17.4533 5.19537 18.1265 5.86859L19.1872 4.80793ZM16.3485 2.91117C15.2869 2.47144 14.1491 2.24512 13 2.24512V3.74512C13.9521 3.74512 14.8948 3.93264 15.7745 4.29699L16.3485 2.91117Z" fill="black"/>
</svg>
